<?xml version="1.0" encoding="UTF-8" standalone="no"?>
<!-- Created with Inkscape (http://www.inkscape.org/) -->

<svg
   version="1.1"
   id="svg1"
   width="500"
   height="500"
   viewBox="0 0 500 500"
   xmlns="http://www.w3.org/2000/svg"
   xmlns:svg="http://www.w3.org/2000/svg">
  <defs
     id="defs1" />
  <g
     id="g1">
    <path
       style="fill:#000000;stroke-width:1.38422"
       d="m 37.288835,431.41139 c -19.985024,-11.9798 -7.804181,-40.81149 -11.46494,-59.97961 0.318105,-41.13955 -0.833742,-82.33014 0.96895,-123.43631 14.361593,-19.63907 30.921819,11.5448 40.56514,22.42349 7.870236,12.1336 20.2241,30.06762 29.523418,8.3481 13.671587,-11.65473 21.817767,-39.82951 42.729767,-35.50231 7.24127,17.71936 2.00691,41.56729 4.04798,61.5612 0.96546,33.47448 -1.29001,67.18333 2.25207,100.50967 18.19395,14.40429 10.80707,-30.5771 12.54979,-41.37227 -0.0388,-49.4073 -0.31124,-98.81415 -0.46521,-148.22122 -15.15063,0.56886 -30.63109,-1.43406 -45.50634,1.60215 -4.93601,13.12109 -6.02243,38.25651 -22.857163,40.0469 -1.93532,-13.78634 -1.568078,-27.76514 -2.231888,-41.64905 -23.366253,-0.89555 -46.9291,0.16022 -70.13086,-2.57766 C 2.2581102,190.4157 40.781293,180.28882 52.920284,167.08581 112.75654,124.22223 171.7874,80.187033 231.79043,37.530662 c 21.08735,-5.926839 36.8332,19.732899 54.61715,28.341412 35.44393,25.091456 70.1243,51.370516 106.21274,75.486356 19.50616,5.66334 40.86911,10.53023 54.54403,27.09853 33.81691,34.72599 42.86604,85.96088 38.74597,132.69901 -1.92751,39.84005 -17.22335,82.27003 -50.00659,106.87155 8.05281,7.69846 50.43359,-5.0434 34.44904,21.46456 -39.65251,3.80913 -79.79573,1.45337 -119.64907,2.26048 -104.4703,-0.015 -208.94866,0.49474 -313.414865,-0.34117 z m 85.040125,-86.24438 c -0.7083,-20.26861 2.09074,-41.25875 -1.79466,-61.02478 -14.22068,9.68888 -23.04749,35.12641 -37.758887,38.38401 -12.046314,-11.66227 -24.098614,-32.13735 -35.378336,-39.75368 -1.069148,40.60448 -1.401429,81.28511 0.05245,121.88083 9.477698,10.86118 32.069753,3.12964 47.165129,5.16006 9.130444,-0.0933 18.260904,-0.1867 27.391354,-0.28006 0.10775,-21.45546 0.2153,-42.91092 0.32296,-64.36638 z m 144.59105,55.92255 c -28.90803,-25.78723 -41.16436,-64.89599 -44.75206,-102.39677 -9.60539,-6.55145 -23.459,-2.1815 -34.94696,-3.35783 -11.15723,-3.62692 -7.17506,7.88558 -7.76972,14.82124 0,33.35642 0,66.71288 0,100.0693 30.03794,-0.43363 60.18548,1.06895 90.13507,-1.142 6.51017,-1.02932 -1.39767,-6.55431 -2.66633,-7.99394 z m 40.62455,-1.59178 c -11.83635,-15.10706 -21.8588,-32.27947 -40.2439,-40.4632 -8.79583,-7.12459 -19.56153,-10.67146 -9.3703,2.91352 11.96999,19.23183 29.23345,39.74554 53.03066,42.569 1.94503,-1.91952 -4.79721,-3.50851 -3.41646,-5.01932 z m 43.69256,-1.04426 c -10.50512,-7.36604 -18.63941,-42.5014 -27.25833,-15.92801 -11.3064,17.95668 37.44385,31.95591 27.25833,15.92801 z m 68.07531,-1.8185 c 30.82622,-17.47642 44.37753,-54.43946 48.91885,-87.84797 3.19056,-39.67405 0.61541,-82.30694 -23.1348,-115.88461 -13.1185,-22.14277 -43.68449,-38.46427 -67.16801,-21.97268 -37.85449,26.16349 -47.21142,76.30571 -45.83618,119.43336 2.25493,39.30876 12.63698,85.21629 49.45557,106.28211 11.42536,7.2687 26.07517,6.06745 37.76457,-0.0103 z m -25.55609,-28.73848 c -25.79967,-11.01614 -35.79294,-41.28846 -38.80287,-67.03008 -1.89224,-29.87404 -0.0222,-61.58414 17.89114,-86.86697 10.71997,-19.92129 41.29289,-24.43796 55.38051,-5.84682 25.51077,27.76737 25.40188,68.56327 21.35602,103.79298 -5.80309,24.13835 -18.09738,54.47807 -46.2466,58.04097 -3.26425,-0.32959 -6.4448,-1.15581 -9.5782,-2.09008 z m 20.7567,-23.855 c 22.65229,-25.63598 23.25177,-63.90432 15.25444,-95.48049 -3.03385,-12.27245 -13.44388,-30.45488 -23.40686,-32.23322 21.1026,27.12654 22.59278,64.79375 16.05851,97.25669 -1.52457,13.51329 -12.11939,26.11667 -16.0342,37.11939 3.20108,-1.56636 5.61274,-4.2328 8.12811,-6.66237 z m -28.30563,-17.27428 c 10.22287,-23.38273 10.59717,-50.63434 4.98177,-75.1997 -1.8686,-11.15751 -11.551,-26.65688 -14.4427,-6.75673 -8.78953,27.9639 -8.29528,59.38311 4.74662,85.9368 2.38139,4.24125 3.61325,-3.82333 4.71431,-3.98037 z m -76.63915,49.02171 c 5.1343,-17.29618 19.13112,-30.84019 7.7031,-49.65603 -1.9517,-27.51727 -22.85485,11.27472 -24.28783,21.58652 -1.79352,7.23826 13.13859,37.58792 16.58473,28.06951 z m -34.71175,-40.01765 c -2.07395,-19.70898 -16.87229,-34.41077 -33.20663,-43.87062 -3.62901,19.16554 3.61908,41.41944 24.57536,48.65914 8.4375,7.43679 15.81109,14.25387 9.36774,-1.79046 z m 14.06788,-19.68762 c 11.40295,-16.64539 31.2367,-29.12533 25.16658,-52.43891 -1.29945,-15.44042 -24.00942,10.08941 -29.49537,17.7392 -7.07923,4.85716 -4.35243,58.20091 4.32879,34.69971 z m -19.32987,-58.65802 c -6.95825,-10.00597 -26.46445,-36.07564 -26.08237,-8.34976 -9.22178,19.53343 12.44772,31.13248 23.43776,41.30167 2.06647,-10.78731 2.66464,-21.97616 2.64461,-32.95191 z m -46.62581,9.18666 c 3.76754,-45.29173 23.5771,-95.53425 67.33099,-115.66255 19.43663,-10.06886 41.87223,-6.39677 62.85179,-8.43328 C 329.47481,122.49549 302.63896,105.89489 277.77614,87.148556 260.1331,77.022671 239.8543,48.014141 220.91085,72.644886 168.04197,111.19984 114.96723,149.49414 62.318108,188.33723 c -4.496955,8.22584 24.424774,2.34271 33.3245,4.39467 41.659742,1.015 83.525202,-1.42266 125.058512,1.83161 7.59243,20.60554 -16.57232,22.43992 -30.8801,20.4865 -10.48737,-2.91376 -11.79822,3.34897 -10.36975,12.35103 0,15.26211 0,30.52425 0,45.78636 13.89918,-0.63186 28.27999,1.54235 41.8038,-1.60524 l 0.931,-1.16862 z m 80.37055,-23.45535 c 16.37805,-2.96278 24.70493,-34.25968 19.75135,-39.07955 -18.43405,7.35319 -38.18444,20.42064 -39.35967,42.31347 -7.90177,28.32172 9.73932,0.39763 19.60832,-3.23392 z m -22.26095,-45.43536 c -12.67761,-23.64601 -36.86056,21.99476 -15.13193,28.3745 6.1349,8.80847 10.19385,8.82086 11.61743,-2.3332 1.67853,-8.38613 9.46724,-18.21754 3.5145,-26.0413 z m 36.52731,-7.5454 c 14.62681,-2.33522 33.72523,-16.24568 34.83745,-27.57482 -24.1875,1.56987 -44.11924,19.99565 -54.61161,40.62462 6.451,-4.51545 12.52312,-9.72385 19.77416,-13.0498 z m -20.1152,-10.07786 c 5.89207,-7.13637 20.39804,-21.93345 2.33306,-12.33139 -14.28482,-0.0173 -16.20058,20.65404 -2.33306,12.33139 z"
       id="path1" />
  </g>
</svg>
