<svg xmlns="http://www.w3.org/2000/svg" width="2500" height="376" viewBox="0 0 36.003 5.415" id="dunlop">
  <path d="M17.092 1.157l-.327.664h.534l-.796 1.678h-.522l-.338.72h1.928l.327-.698h-.512l.545-1.166 1.275 1.853h.915l1.143-2.387h.436l.305-.642h-1.841l-.283.61h.512l-.414.871-.948-1.503zM7.275 1.775h-.567l.305-.675h3.355s.403-.055.872.229c.577.349-.349 2.255-1.122 2.637-.37.184-.763.13-.763.13H5.597l.349-.73h.588l.741-1.591zm1.689.12l-.642 1.361s.185.109.414.109c.229 0 .425-.142.425-.142l.414-.915s.152-.436-.152-.446c-.306-.022-.459.033-.459.033zM31.45 1.931l.349-.751h3.126s.643-.065.97.261c.305.306-.12 1.057-.261 1.253-.272.37-.894.381-.894.381h-1.645l-.163.371h.544l-.371.751h-2.723l.348-.751h.556l.73-1.515h-.566zm2.286-.035l-.218.458s.664.073.751-.188c.109-.372-.533-.27-.533-.27zM1.329 4.042A1.44 1.44 0 0 1 0 2.604c0-.751.588-1.362 1.318-1.427L.458 0l4.804 2.691L.305 5.415l1.024-1.373zm.478.031a1.427 1.427 0 1 0 0-2.854 1.427 1.427 0 0 0 0 2.854zm-.492-1.719h-.207l.109-.239h1.209s.142-.022.316.076c.208.13-.178.787-.39.933-.14.091-.295.068-.295.068H.706l.13-.262h.207l.272-.576zm.613.042l-.24.49s.065.012.152.012a.258.258 0 0 0 .165-.066c.087-.098.141-.283.141-.283.011-.046.054-.153-.055-.164-.109-.011-.163.011-.163.011zM30.296 3.616c-.316.359-.556.534-.98.534H26.57c-.436 0-.773-.349-.61-.752l.621-1.558c.163-.414.577-.708 1.002-.708h2.865a.68.68 0 0 1 .577.828 3.624 3.624 0 0 1-.729 1.656zm-1.624-1.795c-.338 0-.463.058-.59.29l-.39.767s-.12.566.458.566c.621.011.752-.37.752-.37s.219-.401.337-.643c.082-.171.032-.61-.567-.61zM12.113 1.135l-.327.72h.567s-.25.479-.436.915c-.229.338-.305 1.471 1.253 1.471 1.547 0 1.953-.561 2.113-.828l.763-1.569h.349l.327-.686h-1.689l-.316.697h.479l-.588 1.253c-.089.117-.196.337-.643.305-.458-.044-.538-.22-.458-.414l.523-1.155h.447l.337-.708h-2.701zM22.613 1.179l-.283.642h.512l-.752 1.591h-.534l-.359.807s3.791-.011 4.053 0c.033 0 .675-1.449.675-1.449h-1.002l-.294.599h-.85l.73-1.558h.468l.305-.632h-2.669z"></path>
</svg>
